<mxfile host="app.diagrams.net" modified="2023-05-24T12:44:49.127Z" agent="Mozilla/5.0 (Windows NT 10.0; Win64; x64) AppleWebKit/537.36 (KHTML, like Gecko) Chrome/113.0.0.0 Safari/537.36 Edg/113.0.1774.50" version="21.3.3" etag="6y8-V97srdBH4km__znj" type="github">
  <diagram name="Seite-1" id="IePf-hLSp1h5y31JglFu">
    <mxGraphModel>
      <root>
        <mxCell id="0" />
        <mxCell id="1" parent="0" />
      </root>
    </mxGraphModel>
  </diagram>
</mxfile>
